<svg width="22" height="21" viewBox="0 0 22 21" fill="none" xmlns="http://www.w3.org/2000/svg">
<path d="M16.7556 12.5292C16.483 12.7934 16.3577 13.1754 16.4198 13.5501L17.3556 18.7287C17.4345 19.1677 17.2492 19.6118 16.8819 19.8655C16.5219 20.1287 16.043 20.1602 15.6504 19.9497L10.9886 17.5183C10.8265 17.432 10.6465 17.3857 10.4623 17.3804H10.1771C10.0781 17.3952 9.98131 17.4267 9.89289 17.4751L5.23005 19.9181C4.99954 20.0339 4.7385 20.075 4.48273 20.0339C3.85961 19.916 3.44385 19.3224 3.54595 18.6961L4.48273 13.5175C4.54483 13.1396 4.41957 12.7555 4.14696 12.4871L0.346162 8.8031C0.0282884 8.4947 -0.0822305 8.03157 0.0630229 7.6137C0.204066 7.19689 0.564042 6.8927 0.99875 6.82428L6.22998 6.06539C6.62785 6.02434 6.9773 5.78225 7.15623 5.42438L9.46134 0.698376C9.51607 0.59312 9.5866 0.496284 9.67185 0.414185L9.76658 0.340505C9.81605 0.285772 9.87289 0.240512 9.93605 0.203672L10.0508 0.16157L10.2297 0.0878906H10.6728C11.0686 0.128941 11.417 0.365767 11.5991 0.719427L13.9347 5.42438C14.1031 5.76856 14.4305 6.00749 14.8084 6.06539L20.0396 6.82428C20.4817 6.88744 20.8511 7.19268 20.9974 7.6137C21.1353 8.03578 21.0164 8.49891 20.6922 8.8031L16.7556 12.5292Z" fill="#FFC107"/>
</svg>
