<svg width="22" height="21" viewBox="0 0 22 21" fill="none" xmlns="http://www.w3.org/2000/svg">
<path opacity="0.4" d="M11.554 0.7338L13.8977 5.44356C14.0703 5.78479 14.3999 6.02175 14.78 6.07441L20.0442 6.84112C20.3517 6.8843 20.6307 7.04648 20.8191 7.29398C21.0055 7.53831 21.0855 7.84794 21.0402 8.15231C21.0034 8.40507 20.8844 8.63887 20.7023 8.81791L16.8878 12.5156C16.6088 12.7736 16.4824 13.1559 16.5498 13.5298L17.489 18.7282C17.589 19.3559 17.1731 19.9478 16.5498 20.0668C16.2929 20.1079 16.0297 20.0647 15.7981 19.9467L11.1023 17.5002C10.7538 17.3243 10.3422 17.3243 9.99367 17.5002L5.29792 19.9467C4.72096 20.2532 4.00607 20.0447 3.68494 19.476C3.56597 19.2495 3.52386 18.9915 3.56281 18.7398L4.50196 13.5403C4.56934 13.1675 4.44195 12.7831 4.16399 12.5251L0.349491 8.8295C-0.10429 8.39138 -0.117977 7.66996 0.318958 7.21604C0.328434 7.20657 0.338963 7.19603 0.349491 7.1855C0.530583 7.0012 0.768529 6.8843 1.02543 6.85375L6.28971 6.086C6.66874 6.03228 6.99829 5.79743 7.17201 5.4541L9.43144 0.7338C9.63254 0.329384 10.0495 0.0776771 10.5022 0.0882087H10.6433C11.036 0.135601 11.3782 0.378883 11.554 0.7338Z" fill="#FFC107"/>
<path d="M10.5179 17.3691C10.314 17.3754 10.1154 17.4302 9.9367 17.5281L5.26392 19.9691C4.69217 20.2419 4.00796 20.0302 3.6874 19.4834C3.56864 19.2601 3.52555 19.0041 3.56549 18.7534L4.49878 13.5649C4.56184 13.1877 4.43572 12.8043 4.16141 12.5388L0.345197 8.84418C-0.107788 8.40066 -0.116196 7.6727 0.32733 7.21864C0.333636 7.21232 0.338891 7.20705 0.345197 7.20178C0.525971 7.02269 0.759294 6.9047 1.01049 6.86782L6.27919 6.09245C6.66071 6.04399 6.99177 5.8059 7.15994 5.46035L9.45008 0.680647C9.66764 0.295067 10.0849 0.0654054 10.5263 0.0896358C10.5179 0.402524 10.5179 17.1563 10.5179 17.3691Z" fill="#FFC107"/>
</svg>
